<mxfile host="app.diagrams.net" agent="Mozilla/5.0 (Windows NT 10.0; Win64; x64) AppleWebKit/537.36 (KHTML, like Gecko) Chrome/136.0.0.0 Safari/537.36" version="27.0.6">
  <diagram name="PÃ¡gina-1" id="0RnVuigyem1X-TJP2YSt">
    <mxGraphModel dx="1869" dy="1730" grid="1" gridSize="10" guides="1" tooltips="1" connect="1" arrows="1" fold="1" page="1" pageScale="1" pageWidth="827" pageHeight="1169" math="0" shadow="0">
      <root>
        <mxCell id="0" />
        <mxCell id="1" parent="0" />
        <mxCell id="VaUhl3B39Ccq0xWstgRe-73" style="edgeStyle=orthogonalEdgeStyle;rounded=0;orthogonalLoop=1;jettySize=auto;html=1;exitX=1;exitY=0.5;exitDx=0;exitDy=0;entryX=0;entryY=0.5;entryDx=0;entryDy=0;" parent="1" source="VaUhl3B39Ccq0xWstgRe-2" target="VaUhl3B39Ccq0xWstgRe-70" edge="1">
          <mxGeometry relative="1" as="geometry" />
        </mxCell>
        <mxCell id="VaUhl3B39Ccq0xWstgRe-74" style="edgeStyle=orthogonalEdgeStyle;rounded=0;orthogonalLoop=1;jettySize=auto;html=1;exitX=1;exitY=0.5;exitDx=0;exitDy=0;entryX=0;entryY=0.5;entryDx=0;entryDy=0;" parent="1" source="VaUhl3B39Ccq0xWstgRe-2" target="VaUhl3B39Ccq0xWstgRe-71" edge="1">
          <mxGeometry relative="1" as="geometry" />
        </mxCell>
        <mxCell id="VaUhl3B39Ccq0xWstgRe-85" style="edgeStyle=orthogonalEdgeStyle;rounded=0;orthogonalLoop=1;jettySize=auto;html=1;exitX=0.5;exitY=1;exitDx=0;exitDy=0;" parent="1" source="VaUhl3B39Ccq0xWstgRe-2" target="VaUhl3B39Ccq0xWstgRe-28" edge="1">
          <mxGeometry relative="1" as="geometry" />
        </mxCell>
        <mxCell id="VaUhl3B39Ccq0xWstgRe-109" style="edgeStyle=orthogonalEdgeStyle;rounded=0;orthogonalLoop=1;jettySize=auto;html=1;exitX=1;exitY=0.5;exitDx=0;exitDy=0;entryX=0;entryY=0.5;entryDx=0;entryDy=0;" parent="1" source="VaUhl3B39Ccq0xWstgRe-2" target="VaUhl3B39Ccq0xWstgRe-108" edge="1">
          <mxGeometry relative="1" as="geometry" />
        </mxCell>
        <mxCell id="VaUhl3B39Ccq0xWstgRe-123" style="edgeStyle=orthogonalEdgeStyle;rounded=0;orthogonalLoop=1;jettySize=auto;html=1;exitX=1;exitY=0.5;exitDx=0;exitDy=0;entryX=0;entryY=0.5;entryDx=0;entryDy=0;" parent="1" source="VaUhl3B39Ccq0xWstgRe-2" target="VaUhl3B39Ccq0xWstgRe-122" edge="1">
          <mxGeometry relative="1" as="geometry" />
        </mxCell>
        <mxCell id="VaUhl3B39Ccq0xWstgRe-2" value="Pedido" style="shape=ext;margin=3;double=1;whiteSpace=wrap;html=1;align=center;" parent="1" vertex="1">
          <mxGeometry x="417" y="20" width="100" height="40" as="geometry" />
        </mxCell>
        <mxCell id="VaUhl3B39Ccq0xWstgRe-98" style="edgeStyle=orthogonalEdgeStyle;rounded=0;orthogonalLoop=1;jettySize=auto;html=1;exitX=0.5;exitY=1;exitDx=0;exitDy=0;entryX=0;entryY=0.5;entryDx=0;entryDy=0;" parent="1" source="VaUhl3B39Ccq0xWstgRe-4" target="VaUhl3B39Ccq0xWstgRe-94" edge="1">
          <mxGeometry relative="1" as="geometry" />
        </mxCell>
        <mxCell id="VaUhl3B39Ccq0xWstgRe-99" style="edgeStyle=orthogonalEdgeStyle;rounded=0;orthogonalLoop=1;jettySize=auto;html=1;exitX=0.5;exitY=1;exitDx=0;exitDy=0;entryX=0;entryY=0.5;entryDx=0;entryDy=0;" parent="1" source="VaUhl3B39Ccq0xWstgRe-4" target="VaUhl3B39Ccq0xWstgRe-93" edge="1">
          <mxGeometry relative="1" as="geometry" />
        </mxCell>
        <mxCell id="VaUhl3B39Ccq0xWstgRe-100" style="edgeStyle=orthogonalEdgeStyle;rounded=0;orthogonalLoop=1;jettySize=auto;html=1;exitX=0.5;exitY=1;exitDx=0;exitDy=0;entryX=0;entryY=0.5;entryDx=0;entryDy=0;" parent="1" source="VaUhl3B39Ccq0xWstgRe-4" target="VaUhl3B39Ccq0xWstgRe-95" edge="1">
          <mxGeometry relative="1" as="geometry" />
        </mxCell>
        <mxCell id="VaUhl3B39Ccq0xWstgRe-107" style="edgeStyle=orthogonalEdgeStyle;rounded=0;orthogonalLoop=1;jettySize=auto;html=1;exitX=1;exitY=0.5;exitDx=0;exitDy=0;" parent="1" source="VaUhl3B39Ccq0xWstgRe-4" target="VaUhl3B39Ccq0xWstgRe-106" edge="1">
          <mxGeometry relative="1" as="geometry" />
        </mxCell>
        <mxCell id="VaUhl3B39Ccq0xWstgRe-4" value="Editorial" style="whiteSpace=wrap;html=1;align=center;" parent="1" vertex="1">
          <mxGeometry x="414" y="913.5" width="100" height="40" as="geometry" />
        </mxCell>
        <mxCell id="VaUhl3B39Ccq0xWstgRe-19" style="edgeStyle=orthogonalEdgeStyle;rounded=0;orthogonalLoop=1;jettySize=auto;html=1;exitX=0.5;exitY=1;exitDx=0;exitDy=0;" parent="1" source="VaUhl3B39Ccq0xWstgRe-5" target="VaUhl3B39Ccq0xWstgRe-18" edge="1">
          <mxGeometry relative="1" as="geometry" />
        </mxCell>
        <mxCell id="VaUhl3B39Ccq0xWstgRe-24" style="edgeStyle=orthogonalEdgeStyle;rounded=0;orthogonalLoop=1;jettySize=auto;html=1;exitX=1;exitY=0.5;exitDx=0;exitDy=0;entryX=0;entryY=0.5;entryDx=0;entryDy=0;" parent="1" source="VaUhl3B39Ccq0xWstgRe-5" target="VaUhl3B39Ccq0xWstgRe-23" edge="1">
          <mxGeometry relative="1" as="geometry" />
        </mxCell>
        <mxCell id="VaUhl3B39Ccq0xWstgRe-110" style="edgeStyle=orthogonalEdgeStyle;rounded=0;orthogonalLoop=1;jettySize=auto;html=1;exitX=0;exitY=0.5;exitDx=0;exitDy=0;entryX=1;entryY=0.5;entryDx=0;entryDy=0;" parent="1" source="VaUhl3B39Ccq0xWstgRe-5" target="VaUhl3B39Ccq0xWstgRe-83" edge="1">
          <mxGeometry relative="1" as="geometry" />
        </mxCell>
        <mxCell id="VaUhl3B39Ccq0xWstgRe-111" style="edgeStyle=orthogonalEdgeStyle;rounded=0;orthogonalLoop=1;jettySize=auto;html=1;exitX=0;exitY=0.5;exitDx=0;exitDy=0;entryX=1;entryY=0.5;entryDx=0;entryDy=0;" parent="1" source="VaUhl3B39Ccq0xWstgRe-5" target="VaUhl3B39Ccq0xWstgRe-82" edge="1">
          <mxGeometry relative="1" as="geometry" />
        </mxCell>
        <mxCell id="VaUhl3B39Ccq0xWstgRe-112" style="edgeStyle=orthogonalEdgeStyle;rounded=0;orthogonalLoop=1;jettySize=auto;html=1;exitX=0;exitY=0.5;exitDx=0;exitDy=0;entryX=1;entryY=0.5;entryDx=0;entryDy=0;" parent="1" source="VaUhl3B39Ccq0xWstgRe-5" target="VaUhl3B39Ccq0xWstgRe-80" edge="1">
          <mxGeometry relative="1" as="geometry" />
        </mxCell>
        <mxCell id="VaUhl3B39Ccq0xWstgRe-113" style="edgeStyle=orthogonalEdgeStyle;rounded=0;orthogonalLoop=1;jettySize=auto;html=1;exitX=0;exitY=0.5;exitDx=0;exitDy=0;entryX=1;entryY=0.5;entryDx=0;entryDy=0;" parent="1" source="VaUhl3B39Ccq0xWstgRe-5" target="VaUhl3B39Ccq0xWstgRe-79" edge="1">
          <mxGeometry relative="1" as="geometry" />
        </mxCell>
        <mxCell id="VaUhl3B39Ccq0xWstgRe-114" style="edgeStyle=orthogonalEdgeStyle;rounded=0;orthogonalLoop=1;jettySize=auto;html=1;exitX=0;exitY=0.5;exitDx=0;exitDy=0;entryX=1;entryY=0.5;entryDx=0;entryDy=0;" parent="1" source="VaUhl3B39Ccq0xWstgRe-5" target="VaUhl3B39Ccq0xWstgRe-84" edge="1">
          <mxGeometry relative="1" as="geometry" />
        </mxCell>
        <mxCell id="VaUhl3B39Ccq0xWstgRe-115" style="edgeStyle=orthogonalEdgeStyle;rounded=0;orthogonalLoop=1;jettySize=auto;html=1;exitX=0;exitY=0.5;exitDx=0;exitDy=0;entryX=1;entryY=0.5;entryDx=0;entryDy=0;" parent="1" source="VaUhl3B39Ccq0xWstgRe-5" target="VaUhl3B39Ccq0xWstgRe-78" edge="1">
          <mxGeometry relative="1" as="geometry" />
        </mxCell>
        <mxCell id="VaUhl3B39Ccq0xWstgRe-116" style="edgeStyle=orthogonalEdgeStyle;rounded=0;orthogonalLoop=1;jettySize=auto;html=1;exitX=0;exitY=0.5;exitDx=0;exitDy=0;entryX=1;entryY=0.5;entryDx=0;entryDy=0;" parent="1" source="VaUhl3B39Ccq0xWstgRe-5" target="VaUhl3B39Ccq0xWstgRe-77" edge="1">
          <mxGeometry relative="1" as="geometry" />
        </mxCell>
        <mxCell id="VaUhl3B39Ccq0xWstgRe-119" style="edgeStyle=orthogonalEdgeStyle;rounded=0;orthogonalLoop=1;jettySize=auto;html=1;exitX=0;exitY=0.5;exitDx=0;exitDy=0;entryX=0.5;entryY=0;entryDx=0;entryDy=0;" parent="1" edge="1">
          <mxGeometry relative="1" as="geometry">
            <mxPoint x="419.06" y="550" as="sourcePoint" />
            <mxPoint x="370.0599999999998" y="652" as="targetPoint" />
            <Array as="points">
              <mxPoint x="370.06" y="550" />
            </Array>
          </mxGeometry>
        </mxCell>
        <mxCell id="VaUhl3B39Ccq0xWstgRe-131" style="edgeStyle=orthogonalEdgeStyle;rounded=0;orthogonalLoop=1;jettySize=auto;html=1;exitX=0;exitY=0.5;exitDx=0;exitDy=0;entryX=1;entryY=0.5;entryDx=0;entryDy=0;" parent="1" source="VaUhl3B39Ccq0xWstgRe-5" target="VaUhl3B39Ccq0xWstgRe-129" edge="1">
          <mxGeometry relative="1" as="geometry" />
        </mxCell>
        <mxCell id="VaUhl3B39Ccq0xWstgRe-5" value="Libro" style="shape=ext;margin=3;double=1;whiteSpace=wrap;html=1;align=center;" parent="1" vertex="1">
          <mxGeometry x="414" y="530" width="100" height="40" as="geometry" />
        </mxCell>
        <mxCell id="VaUhl3B39Ccq0xWstgRe-76" style="edgeStyle=orthogonalEdgeStyle;rounded=0;orthogonalLoop=1;jettySize=auto;html=1;exitX=0.5;exitY=1;exitDx=0;exitDy=0;entryX=0;entryY=0.5;entryDx=0;entryDy=0;" parent="1" source="VaUhl3B39Ccq0xWstgRe-6" target="VaUhl3B39Ccq0xWstgRe-75" edge="1">
          <mxGeometry relative="1" as="geometry" />
        </mxCell>
        <mxCell id="VaUhl3B39Ccq0xWstgRe-121" style="edgeStyle=orthogonalEdgeStyle;rounded=0;orthogonalLoop=1;jettySize=auto;html=1;exitX=0.5;exitY=1;exitDx=0;exitDy=0;entryX=0;entryY=0.5;entryDx=0;entryDy=0;" parent="1" source="VaUhl3B39Ccq0xWstgRe-6" target="VaUhl3B39Ccq0xWstgRe-120" edge="1">
          <mxGeometry relative="1" as="geometry" />
        </mxCell>
        <mxCell id="VaUhl3B39Ccq0xWstgRe-133" style="edgeStyle=orthogonalEdgeStyle;rounded=0;orthogonalLoop=1;jettySize=auto;html=1;exitX=0.5;exitY=1;exitDx=0;exitDy=0;entryX=0;entryY=0.5;entryDx=0;entryDy=0;" parent="1" source="VaUhl3B39Ccq0xWstgRe-6" target="VaUhl3B39Ccq0xWstgRe-132" edge="1">
          <mxGeometry relative="1" as="geometry" />
        </mxCell>
        <mxCell id="VaUhl3B39Ccq0xWstgRe-6" value="Inventario" style="shape=ext;margin=3;double=1;whiteSpace=wrap;html=1;align=center;" parent="1" vertex="1">
          <mxGeometry x="827" y="530" width="100" height="40" as="geometry" />
        </mxCell>
        <mxCell id="VaUhl3B39Ccq0xWstgRe-10" style="edgeStyle=orthogonalEdgeStyle;rounded=0;orthogonalLoop=1;jettySize=auto;html=1;exitX=1;exitY=0.5;exitDx=0;exitDy=0;entryX=0;entryY=0.5;entryDx=0;entryDy=0;" parent="1" source="VaUhl3B39Ccq0xWstgRe-7" target="VaUhl3B39Ccq0xWstgRe-2" edge="1">
          <mxGeometry relative="1" as="geometry">
            <mxPoint x="414" y="40" as="targetPoint" />
          </mxGeometry>
        </mxCell>
        <mxCell id="VaUhl3B39Ccq0xWstgRe-7" value="Realiza" style="shape=rhombus;perimeter=rhombusPerimeter;whiteSpace=wrap;html=1;align=center;" parent="1" vertex="1">
          <mxGeometry x="110" y="10" width="120" height="60" as="geometry" />
        </mxCell>
        <mxCell id="VaUhl3B39Ccq0xWstgRe-9" style="edgeStyle=orthogonalEdgeStyle;rounded=0;orthogonalLoop=1;jettySize=auto;html=1;exitX=0.5;exitY=0;exitDx=0;exitDy=0;entryX=0;entryY=0.5;entryDx=0;entryDy=0;" parent="1" source="VaUhl3B39Ccq0xWstgRe-8" target="VaUhl3B39Ccq0xWstgRe-7" edge="1">
          <mxGeometry relative="1" as="geometry" />
        </mxCell>
        <mxCell id="VaUhl3B39Ccq0xWstgRe-40" style="edgeStyle=orthogonalEdgeStyle;rounded=0;orthogonalLoop=1;jettySize=auto;html=1;exitX=0.5;exitY=1;exitDx=0;exitDy=0;entryX=0;entryY=0.5;entryDx=0;entryDy=0;" parent="1" source="VaUhl3B39Ccq0xWstgRe-8" target="VaUhl3B39Ccq0xWstgRe-37" edge="1">
          <mxGeometry relative="1" as="geometry" />
        </mxCell>
        <mxCell id="VaUhl3B39Ccq0xWstgRe-41" style="edgeStyle=orthogonalEdgeStyle;rounded=0;orthogonalLoop=1;jettySize=auto;html=1;exitX=0.5;exitY=1;exitDx=0;exitDy=0;entryX=0;entryY=0.5;entryDx=0;entryDy=0;" parent="1" source="VaUhl3B39Ccq0xWstgRe-8" target="VaUhl3B39Ccq0xWstgRe-38" edge="1">
          <mxGeometry relative="1" as="geometry" />
        </mxCell>
        <mxCell id="VaUhl3B39Ccq0xWstgRe-42" style="edgeStyle=orthogonalEdgeStyle;rounded=0;orthogonalLoop=1;jettySize=auto;html=1;exitX=0.5;exitY=1;exitDx=0;exitDy=0;entryX=0;entryY=0.5;entryDx=0;entryDy=0;" parent="1" source="VaUhl3B39Ccq0xWstgRe-8" target="VaUhl3B39Ccq0xWstgRe-39" edge="1">
          <mxGeometry relative="1" as="geometry" />
        </mxCell>
        <mxCell id="VaUhl3B39Ccq0xWstgRe-54" style="edgeStyle=orthogonalEdgeStyle;rounded=0;orthogonalLoop=1;jettySize=auto;html=1;exitX=0.5;exitY=1;exitDx=0;exitDy=0;entryX=0;entryY=0.5;entryDx=0;entryDy=0;" parent="1" source="VaUhl3B39Ccq0xWstgRe-8" target="VaUhl3B39Ccq0xWstgRe-33" edge="1">
          <mxGeometry relative="1" as="geometry" />
        </mxCell>
        <mxCell id="VaUhl3B39Ccq0xWstgRe-105" style="edgeStyle=orthogonalEdgeStyle;rounded=0;orthogonalLoop=1;jettySize=auto;html=1;exitX=1;exitY=0.5;exitDx=0;exitDy=0;entryX=0;entryY=0.5;entryDx=0;entryDy=0;" parent="1" source="VaUhl3B39Ccq0xWstgRe-8" target="VaUhl3B39Ccq0xWstgRe-103" edge="1">
          <mxGeometry relative="1" as="geometry" />
        </mxCell>
        <mxCell id="VaUhl3B39Ccq0xWstgRe-8" value="Cliente" style="whiteSpace=wrap;html=1;align=center;" parent="1" vertex="1">
          <mxGeometry x="-190" y="441" width="100" height="40" as="geometry" />
        </mxCell>
        <mxCell id="VaUhl3B39Ccq0xWstgRe-11" value="(1:1)" style="text;html=1;align=center;verticalAlign=middle;resizable=0;points=[];autosize=1;strokeColor=none;fillColor=none;" parent="1" vertex="1">
          <mxGeometry x="-125" y="389" width="50" height="30" as="geometry" />
        </mxCell>
        <mxCell id="VaUhl3B39Ccq0xWstgRe-12" value="(0:N)" style="text;html=1;align=center;verticalAlign=middle;resizable=0;points=[];autosize=1;strokeColor=none;fillColor=none;" parent="1" vertex="1">
          <mxGeometry x="340" width="50" height="30" as="geometry" />
        </mxCell>
        <mxCell id="VaUhl3B39Ccq0xWstgRe-15" style="edgeStyle=orthogonalEdgeStyle;rounded=0;orthogonalLoop=1;jettySize=auto;html=1;exitX=0.5;exitY=1;exitDx=0;exitDy=0;entryX=0.5;entryY=0;entryDx=0;entryDy=0;" parent="1" target="VaUhl3B39Ccq0xWstgRe-5" edge="1">
          <mxGeometry relative="1" as="geometry">
            <mxPoint x="464" y="320" as="sourcePoint" />
          </mxGeometry>
        </mxCell>
        <mxCell id="VaUhl3B39Ccq0xWstgRe-16" value="(1:N)" style="text;html=1;align=center;verticalAlign=middle;resizable=0;points=[];autosize=1;strokeColor=none;fillColor=none;" parent="1" vertex="1">
          <mxGeometry x="475" y="68" width="50" height="30" as="geometry" />
        </mxCell>
        <mxCell id="VaUhl3B39Ccq0xWstgRe-17" value="(1:N)" style="text;html=1;align=center;verticalAlign=middle;resizable=0;points=[];autosize=1;strokeColor=none;fillColor=none;" parent="1" vertex="1">
          <mxGeometry x="474" y="480" width="50" height="30" as="geometry" />
        </mxCell>
        <mxCell id="VaUhl3B39Ccq0xWstgRe-20" style="edgeStyle=orthogonalEdgeStyle;rounded=0;orthogonalLoop=1;jettySize=auto;html=1;exitX=0.5;exitY=1;exitDx=0;exitDy=0;entryX=0.5;entryY=0;entryDx=0;entryDy=0;" parent="1" source="VaUhl3B39Ccq0xWstgRe-18" target="VaUhl3B39Ccq0xWstgRe-4" edge="1">
          <mxGeometry relative="1" as="geometry" />
        </mxCell>
        <mxCell id="VaUhl3B39Ccq0xWstgRe-18" value="Pertenece" style="shape=rhombus;perimeter=rhombusPerimeter;whiteSpace=wrap;html=1;align=center;" parent="1" vertex="1">
          <mxGeometry x="405" y="800" width="120" height="60" as="geometry" />
        </mxCell>
        <mxCell id="VaUhl3B39Ccq0xWstgRe-21" value="(1:N)" style="text;html=1;align=center;verticalAlign=middle;resizable=0;points=[];autosize=1;strokeColor=none;fillColor=none;" parent="1" vertex="1">
          <mxGeometry x="480" y="580" width="50" height="30" as="geometry" />
        </mxCell>
        <mxCell id="VaUhl3B39Ccq0xWstgRe-22" value="(1:1)" style="text;html=1;align=center;verticalAlign=middle;resizable=0;points=[];autosize=1;strokeColor=none;fillColor=none;" parent="1" vertex="1">
          <mxGeometry x="475" y="884" width="50" height="30" as="geometry" />
        </mxCell>
        <mxCell id="VaUhl3B39Ccq0xWstgRe-25" style="edgeStyle=orthogonalEdgeStyle;rounded=0;orthogonalLoop=1;jettySize=auto;html=1;entryX=0;entryY=0.5;entryDx=0;entryDy=0;" parent="1" source="VaUhl3B39Ccq0xWstgRe-23" target="VaUhl3B39Ccq0xWstgRe-6" edge="1">
          <mxGeometry relative="1" as="geometry" />
        </mxCell>
        <mxCell id="VaUhl3B39Ccq0xWstgRe-23" value="Existe" style="shape=rhombus;perimeter=rhombusPerimeter;whiteSpace=wrap;html=1;align=center;" parent="1" vertex="1">
          <mxGeometry x="620" y="520" width="120" height="60" as="geometry" />
        </mxCell>
        <mxCell id="VaUhl3B39Ccq0xWstgRe-26" value="(1:N)" style="text;html=1;align=center;verticalAlign=middle;resizable=0;points=[];autosize=1;strokeColor=none;fillColor=none;" parent="1" vertex="1">
          <mxGeometry x="524" y="520" width="50" height="30" as="geometry" />
        </mxCell>
        <mxCell id="VaUhl3B39Ccq0xWstgRe-27" value="(0:1)" style="text;html=1;align=center;verticalAlign=middle;resizable=0;points=[];autosize=1;strokeColor=none;fillColor=none;" parent="1" vertex="1">
          <mxGeometry x="770" y="520" width="50" height="30" as="geometry" />
        </mxCell>
        <mxCell id="VaUhl3B39Ccq0xWstgRe-126" style="edgeStyle=orthogonalEdgeStyle;rounded=0;orthogonalLoop=1;jettySize=auto;html=1;exitX=1;exitY=0.5;exitDx=0;exitDy=0;entryX=0;entryY=0.5;entryDx=0;entryDy=0;" parent="1" source="VaUhl3B39Ccq0xWstgRe-28" target="VaUhl3B39Ccq0xWstgRe-124" edge="1">
          <mxGeometry relative="1" as="geometry" />
        </mxCell>
        <mxCell id="VaUhl3B39Ccq0xWstgRe-127" style="edgeStyle=orthogonalEdgeStyle;rounded=0;orthogonalLoop=1;jettySize=auto;html=1;exitX=1;exitY=0.5;exitDx=0;exitDy=0;" parent="1" source="VaUhl3B39Ccq0xWstgRe-28" target="VaUhl3B39Ccq0xWstgRe-125" edge="1">
          <mxGeometry relative="1" as="geometry" />
        </mxCell>
        <mxCell id="VaUhl3B39Ccq0xWstgRe-135" style="edgeStyle=orthogonalEdgeStyle;rounded=0;orthogonalLoop=1;jettySize=auto;html=1;exitX=1;exitY=0.5;exitDx=0;exitDy=0;entryX=0;entryY=0.5;entryDx=0;entryDy=0;" parent="1" source="VaUhl3B39Ccq0xWstgRe-28" target="VaUhl3B39Ccq0xWstgRe-134" edge="1">
          <mxGeometry relative="1" as="geometry" />
        </mxCell>
        <mxCell id="VaUhl3B39Ccq0xWstgRe-139" style="edgeStyle=orthogonalEdgeStyle;rounded=0;orthogonalLoop=1;jettySize=auto;html=1;exitX=1;exitY=0.5;exitDx=0;exitDy=0;entryX=0;entryY=0.5;entryDx=0;entryDy=0;" parent="1" source="VaUhl3B39Ccq0xWstgRe-28" target="VaUhl3B39Ccq0xWstgRe-128" edge="1">
          <mxGeometry relative="1" as="geometry" />
        </mxCell>
        <mxCell id="VaUhl3B39Ccq0xWstgRe-28" value="Contiene" style="shape=associativeEntity;whiteSpace=wrap;html=1;align=center;" parent="1" vertex="1">
          <mxGeometry x="397" y="300" width="140" height="60" as="geometry" />
        </mxCell>
        <mxCell id="VaUhl3B39Ccq0xWstgRe-29" value="Items" style="text;html=1;align=center;verticalAlign=middle;resizable=0;points=[];autosize=1;strokeColor=none;fillColor=none;" parent="1" vertex="1">
          <mxGeometry x="397" y="270" width="50" height="30" as="geometry" />
        </mxCell>
        <mxCell id="VaUhl3B39Ccq0xWstgRe-30" value="(1:N)" style="text;html=1;align=center;verticalAlign=middle;resizable=0;points=[];autosize=1;strokeColor=none;fillColor=none;" parent="1" vertex="1">
          <mxGeometry x="483" y="270" width="50" height="30" as="geometry" />
        </mxCell>
        <mxCell id="VaUhl3B39Ccq0xWstgRe-32" value="(1:N)" style="text;html=1;align=center;verticalAlign=middle;resizable=0;points=[];autosize=1;strokeColor=none;fillColor=none;" parent="1" vertex="1">
          <mxGeometry x="474" y="370" width="50" height="30" as="geometry" />
        </mxCell>
        <mxCell id="VaUhl3B39Ccq0xWstgRe-33" value="Nombre" style="ellipse;whiteSpace=wrap;html=1;align=center;" parent="1" vertex="1">
          <mxGeometry x="-120" y="849" width="100" height="40" as="geometry" />
        </mxCell>
        <mxCell id="VaUhl3B39Ccq0xWstgRe-49" style="edgeStyle=orthogonalEdgeStyle;rounded=0;orthogonalLoop=1;jettySize=auto;html=1;exitX=1;exitY=0.5;exitDx=0;exitDy=0;entryX=0;entryY=0.5;entryDx=0;entryDy=0;" parent="1" source="VaUhl3B39Ccq0xWstgRe-37" target="VaUhl3B39Ccq0xWstgRe-43" edge="1">
          <mxGeometry relative="1" as="geometry" />
        </mxCell>
        <mxCell id="VaUhl3B39Ccq0xWstgRe-51" style="edgeStyle=orthogonalEdgeStyle;rounded=0;orthogonalLoop=1;jettySize=auto;html=1;exitX=1;exitY=0.5;exitDx=0;exitDy=0;entryX=0;entryY=0.5;entryDx=0;entryDy=0;" parent="1" source="VaUhl3B39Ccq0xWstgRe-37" target="VaUhl3B39Ccq0xWstgRe-44" edge="1">
          <mxGeometry relative="1" as="geometry" />
        </mxCell>
        <mxCell id="VaUhl3B39Ccq0xWstgRe-52" style="edgeStyle=orthogonalEdgeStyle;rounded=0;orthogonalLoop=1;jettySize=auto;html=1;exitX=1;exitY=0.5;exitDx=0;exitDy=0;entryX=0;entryY=0.5;entryDx=0;entryDy=0;" parent="1" source="VaUhl3B39Ccq0xWstgRe-37" target="VaUhl3B39Ccq0xWstgRe-46" edge="1">
          <mxGeometry relative="1" as="geometry" />
        </mxCell>
        <mxCell id="VaUhl3B39Ccq0xWstgRe-53" style="edgeStyle=orthogonalEdgeStyle;rounded=0;orthogonalLoop=1;jettySize=auto;html=1;exitX=1;exitY=0.5;exitDx=0;exitDy=0;entryX=0;entryY=0.5;entryDx=0;entryDy=0;" parent="1" source="VaUhl3B39Ccq0xWstgRe-37" target="VaUhl3B39Ccq0xWstgRe-47" edge="1">
          <mxGeometry relative="1" as="geometry" />
        </mxCell>
        <mxCell id="VaUhl3B39Ccq0xWstgRe-37" value="DirecciÃ³n" style="ellipse;whiteSpace=wrap;html=1;align=center;" parent="1" vertex="1">
          <mxGeometry x="-120" y="919" width="100" height="40" as="geometry" />
        </mxCell>
        <mxCell id="VaUhl3B39Ccq0xWstgRe-38" value="Telefono" style="ellipse;whiteSpace=wrap;html=1;align=center;" parent="1" vertex="1">
          <mxGeometry x="-120" y="999" width="100" height="40" as="geometry" />
        </mxCell>
        <mxCell id="VaUhl3B39Ccq0xWstgRe-39" value="Email" style="ellipse;whiteSpace=wrap;html=1;align=center;" parent="1" vertex="1">
          <mxGeometry x="-120" y="1064" width="100" height="40" as="geometry" />
        </mxCell>
        <mxCell id="VaUhl3B39Ccq0xWstgRe-43" value="Calle" style="ellipse;whiteSpace=wrap;html=1;align=center;dashed=1;" parent="1" vertex="1">
          <mxGeometry x="30" y="919" width="100" height="40" as="geometry" />
        </mxCell>
        <mxCell id="VaUhl3B39Ccq0xWstgRe-44" value="Barrio" style="ellipse;whiteSpace=wrap;html=1;align=center;dashed=1;" parent="1" vertex="1">
          <mxGeometry x="30" y="974" width="100" height="40" as="geometry" />
        </mxCell>
        <mxCell id="VaUhl3B39Ccq0xWstgRe-46" value="Ciudad" style="ellipse;whiteSpace=wrap;html=1;align=center;dashed=1;" parent="1" vertex="1">
          <mxGeometry x="30" y="1029" width="100" height="40" as="geometry" />
        </mxCell>
        <mxCell id="VaUhl3B39Ccq0xWstgRe-47" value="Estado" style="ellipse;whiteSpace=wrap;html=1;align=center;dashed=1;" parent="1" vertex="1">
          <mxGeometry x="30" y="1089" width="100" height="40" as="geometry" />
        </mxCell>
        <mxCell id="VaUhl3B39Ccq0xWstgRe-63" style="edgeStyle=orthogonalEdgeStyle;rounded=0;orthogonalLoop=1;jettySize=auto;html=1;exitX=0.01;exitY=0.97;exitDx=0;exitDy=0;exitPerimeter=0;entryX=0.5;entryY=0;entryDx=0;entryDy=0;" parent="1" source="VaUhl3B39Ccq0xWstgRe-55" target="VaUhl3B39Ccq0xWstgRe-57" edge="1">
          <mxGeometry relative="1" as="geometry" />
        </mxCell>
        <mxCell id="VaUhl3B39Ccq0xWstgRe-64" style="edgeStyle=orthogonalEdgeStyle;rounded=0;orthogonalLoop=1;jettySize=auto;html=1;exitX=0.99;exitY=0.97;exitDx=0;exitDy=0;exitPerimeter=0;entryX=0.5;entryY=0;entryDx=0;entryDy=0;" parent="1" source="VaUhl3B39Ccq0xWstgRe-55" target="VaUhl3B39Ccq0xWstgRe-58" edge="1">
          <mxGeometry relative="1" as="geometry" />
        </mxCell>
        <mxCell id="VaUhl3B39Ccq0xWstgRe-55" value="ID" style="strokeWidth=2;html=1;shape=mxgraph.flowchart.extract_or_measurement;whiteSpace=wrap;" parent="1" vertex="1">
          <mxGeometry x="-30" y="481" width="95" height="60" as="geometry" />
        </mxCell>
        <mxCell id="VaUhl3B39Ccq0xWstgRe-56" style="edgeStyle=orthogonalEdgeStyle;rounded=0;orthogonalLoop=1;jettySize=auto;html=1;exitX=1;exitY=0.5;exitDx=0;exitDy=0;entryX=0.5;entryY=0;entryDx=0;entryDy=0;entryPerimeter=0;" parent="1" source="VaUhl3B39Ccq0xWstgRe-8" target="VaUhl3B39Ccq0xWstgRe-55" edge="1">
          <mxGeometry relative="1" as="geometry" />
        </mxCell>
        <mxCell id="VaUhl3B39Ccq0xWstgRe-65" style="edgeStyle=orthogonalEdgeStyle;rounded=0;orthogonalLoop=1;jettySize=auto;html=1;exitX=0.5;exitY=1;exitDx=0;exitDy=0;entryX=0;entryY=0.5;entryDx=0;entryDy=0;" parent="1" source="VaUhl3B39Ccq0xWstgRe-57" target="VaUhl3B39Ccq0xWstgRe-62" edge="1">
          <mxGeometry relative="1" as="geometry" />
        </mxCell>
        <mxCell id="VaUhl3B39Ccq0xWstgRe-68" style="edgeStyle=orthogonalEdgeStyle;rounded=0;orthogonalLoop=1;jettySize=auto;html=1;exitX=0.5;exitY=1;exitDx=0;exitDy=0;entryX=0;entryY=0.5;entryDx=0;entryDy=0;" parent="1" source="VaUhl3B39Ccq0xWstgRe-57" target="VaUhl3B39Ccq0xWstgRe-61" edge="1">
          <mxGeometry relative="1" as="geometry" />
        </mxCell>
        <mxCell id="VaUhl3B39Ccq0xWstgRe-57" value="PN" style="rounded=1;arcSize=10;whiteSpace=wrap;html=1;align=center;" parent="1" vertex="1">
          <mxGeometry x="-100" y="586" width="100" height="40" as="geometry" />
        </mxCell>
        <mxCell id="VaUhl3B39Ccq0xWstgRe-67" style="edgeStyle=orthogonalEdgeStyle;rounded=0;orthogonalLoop=1;jettySize=auto;html=1;exitX=0.5;exitY=1;exitDx=0;exitDy=0;entryX=0;entryY=0.5;entryDx=0;entryDy=0;" parent="1" source="VaUhl3B39Ccq0xWstgRe-58" target="VaUhl3B39Ccq0xWstgRe-60" edge="1">
          <mxGeometry relative="1" as="geometry" />
        </mxCell>
        <mxCell id="VaUhl3B39Ccq0xWstgRe-69" style="edgeStyle=orthogonalEdgeStyle;rounded=0;orthogonalLoop=1;jettySize=auto;html=1;exitX=0.5;exitY=1;exitDx=0;exitDy=0;entryX=0;entryY=0.5;entryDx=0;entryDy=0;" parent="1" source="VaUhl3B39Ccq0xWstgRe-58" target="VaUhl3B39Ccq0xWstgRe-59" edge="1">
          <mxGeometry relative="1" as="geometry" />
        </mxCell>
        <mxCell id="VaUhl3B39Ccq0xWstgRe-58" value="PJ" style="rounded=1;arcSize=10;whiteSpace=wrap;html=1;align=center;" parent="1" vertex="1">
          <mxGeometry x="60" y="586" width="100" height="40" as="geometry" />
        </mxCell>
        <mxCell id="VaUhl3B39Ccq0xWstgRe-59" value="RUES" style="ellipse;whiteSpace=wrap;html=1;align=center;" parent="1" vertex="1">
          <mxGeometry x="130" y="711" width="100" height="40" as="geometry" />
        </mxCell>
        <mxCell id="VaUhl3B39Ccq0xWstgRe-60" value="NIT" style="ellipse;whiteSpace=wrap;html=1;align=center;" parent="1" vertex="1">
          <mxGeometry x="130" y="651" width="100" height="40" as="geometry" />
        </mxCell>
        <mxCell id="VaUhl3B39Ccq0xWstgRe-61" value="RUT" style="ellipse;whiteSpace=wrap;html=1;align=center;" parent="1" vertex="1">
          <mxGeometry x="-30" y="711" width="100" height="40" as="geometry" />
        </mxCell>
        <mxCell id="VaUhl3B39Ccq0xWstgRe-62" value="DNI" style="ellipse;whiteSpace=wrap;html=1;align=center;" parent="1" vertex="1">
          <mxGeometry x="-30" y="651" width="100" height="40" as="geometry" />
        </mxCell>
        <mxCell id="VaUhl3B39Ccq0xWstgRe-70" value="Fecha" style="ellipse;whiteSpace=wrap;html=1;align=center;" parent="1" vertex="1">
          <mxGeometry x="590" y="20" width="100" height="40" as="geometry" />
        </mxCell>
        <mxCell id="VaUhl3B39Ccq0xWstgRe-71" value="Valor" style="ellipse;whiteSpace=wrap;html=1;align=center;" parent="1" vertex="1">
          <mxGeometry x="590" y="80" width="100" height="40" as="geometry" />
        </mxCell>
        <mxCell id="VaUhl3B39Ccq0xWstgRe-75" value="Cantidad" style="ellipse;whiteSpace=wrap;html=1;align=center;" parent="1" vertex="1">
          <mxGeometry x="900" y="600" width="100" height="40" as="geometry" />
        </mxCell>
        <mxCell id="VaUhl3B39Ccq0xWstgRe-77" value="Titulo" style="ellipse;whiteSpace=wrap;html=1;align=center;" parent="1" vertex="1">
          <mxGeometry x="230" y="178" width="100" height="40" as="geometry" />
        </mxCell>
        <mxCell id="VaUhl3B39Ccq0xWstgRe-78" value="Categoria" style="ellipse;whiteSpace=wrap;html=1;align=center;" parent="1" vertex="1">
          <mxGeometry x="230" y="230" width="100" height="40" as="geometry" />
        </mxCell>
        <mxCell id="VaUhl3B39Ccq0xWstgRe-79" value="AÃ±o_Publicacion" style="ellipse;whiteSpace=wrap;html=1;align=center;" parent="1" vertex="1">
          <mxGeometry x="230" y="360" width="100" height="40" as="geometry" />
        </mxCell>
        <mxCell id="VaUhl3B39Ccq0xWstgRe-80" value="Editorial" style="ellipse;whiteSpace=wrap;html=1;align=center;" parent="1" vertex="1">
          <mxGeometry x="230" y="420" width="100" height="40" as="geometry" />
        </mxCell>
        <mxCell id="VaUhl3B39Ccq0xWstgRe-82" value="Valor" style="ellipse;whiteSpace=wrap;html=1;align=center;" parent="1" vertex="1">
          <mxGeometry x="230" y="480" width="100" height="40" as="geometry" />
        </mxCell>
        <mxCell id="VaUhl3B39Ccq0xWstgRe-83" value="Autoria" style="ellipse;whiteSpace=wrap;html=1;align=center;" parent="1" vertex="1">
          <mxGeometry x="230" y="530" width="100" height="40" as="geometry" />
        </mxCell>
        <mxCell id="VaUhl3B39Ccq0xWstgRe-84" value="ISBM" style="ellipse;whiteSpace=wrap;html=1;align=center;" parent="1" vertex="1">
          <mxGeometry x="230" y="290" width="100" height="40" as="geometry" />
        </mxCell>
        <mxCell id="VaUhl3B39Ccq0xWstgRe-93" value="Nombre_Contacto" style="ellipse;whiteSpace=wrap;html=1;align=center;" parent="1" vertex="1">
          <mxGeometry x="530" y="1059" width="100" height="40" as="geometry" />
        </mxCell>
        <mxCell id="VaUhl3B39Ccq0xWstgRe-101" style="edgeStyle=orthogonalEdgeStyle;rounded=0;orthogonalLoop=1;jettySize=auto;html=1;exitX=1;exitY=0.5;exitDx=0;exitDy=0;entryX=0;entryY=0.5;entryDx=0;entryDy=0;" parent="1" source="VaUhl3B39Ccq0xWstgRe-94" target="VaUhl3B39Ccq0xWstgRe-96" edge="1">
          <mxGeometry relative="1" as="geometry" />
        </mxCell>
        <mxCell id="VaUhl3B39Ccq0xWstgRe-102" style="edgeStyle=orthogonalEdgeStyle;rounded=0;orthogonalLoop=1;jettySize=auto;html=1;exitX=1;exitY=0.5;exitDx=0;exitDy=0;entryX=0;entryY=0.5;entryDx=0;entryDy=0;" parent="1" source="VaUhl3B39Ccq0xWstgRe-94" target="VaUhl3B39Ccq0xWstgRe-97" edge="1">
          <mxGeometry relative="1" as="geometry" />
        </mxCell>
        <mxCell id="VaUhl3B39Ccq0xWstgRe-94" value="Telofono" style="ellipse;whiteSpace=wrap;html=1;align=center;" parent="1" vertex="1">
          <mxGeometry x="530" y="989" width="100" height="40" as="geometry" />
        </mxCell>
        <mxCell id="VaUhl3B39Ccq0xWstgRe-95" value="Email" style="ellipse;whiteSpace=wrap;html=1;align=center;" parent="1" vertex="1">
          <mxGeometry x="525" y="1129" width="100" height="40" as="geometry" />
        </mxCell>
        <mxCell id="VaUhl3B39Ccq0xWstgRe-96" value="Telefono_1" style="ellipse;whiteSpace=wrap;html=1;align=center;dashed=1;" parent="1" vertex="1">
          <mxGeometry x="690" y="989" width="100" height="40" as="geometry" />
        </mxCell>
        <mxCell id="VaUhl3B39Ccq0xWstgRe-97" value="Telofono_2" style="ellipse;whiteSpace=wrap;html=1;align=center;dashed=1;" parent="1" vertex="1">
          <mxGeometry x="690" y="1039" width="100" height="40" as="geometry" />
        </mxCell>
        <mxCell id="VaUhl3B39Ccq0xWstgRe-103" value="Codigo Cliente" style="ellipse;whiteSpace=wrap;html=1;align=center;fontStyle=4;" parent="1" vertex="1">
          <mxGeometry x="-60" y="401" width="100" height="40" as="geometry" />
        </mxCell>
        <mxCell id="VaUhl3B39Ccq0xWstgRe-106" value="Codigo Editorial" style="ellipse;whiteSpace=wrap;html=1;align=center;fontStyle=4;" parent="1" vertex="1">
          <mxGeometry x="560" y="913.5" width="100" height="40" as="geometry" />
        </mxCell>
        <mxCell id="VaUhl3B39Ccq0xWstgRe-108" value="Codigo Cliente" style="ellipse;whiteSpace=wrap;html=1;align=center;fontStyle=4;" parent="1" vertex="1">
          <mxGeometry x="590" y="-120" width="100" height="40" as="geometry" />
        </mxCell>
        <mxCell id="VaUhl3B39Ccq0xWstgRe-117" value="Codigo Editorial" style="ellipse;whiteSpace=wrap;html=1;align=center;fontStyle=4;" parent="1" vertex="1">
          <mxGeometry x="330" y="652" width="100" height="40" as="geometry" />
        </mxCell>
        <mxCell id="VaUhl3B39Ccq0xWstgRe-120" value="Codigo Editorial" style="ellipse;whiteSpace=wrap;html=1;align=center;fontStyle=4;" parent="1" vertex="1">
          <mxGeometry x="910" y="730" width="100" height="40" as="geometry" />
        </mxCell>
        <mxCell id="VaUhl3B39Ccq0xWstgRe-122" value="Codigo Pedido" style="ellipse;whiteSpace=wrap;html=1;align=center;fontStyle=4;" parent="1" vertex="1">
          <mxGeometry x="590" y="-50" width="100" height="40" as="geometry" />
        </mxCell>
        <mxCell id="VaUhl3B39Ccq0xWstgRe-124" value="Cantidad" style="ellipse;whiteSpace=wrap;html=1;align=center;" parent="1" vertex="1">
          <mxGeometry x="574" y="310" width="100" height="40" as="geometry" />
        </mxCell>
        <mxCell id="VaUhl3B39Ccq0xWstgRe-125" value="Valor" style="ellipse;whiteSpace=wrap;html=1;align=center;" parent="1" vertex="1">
          <mxGeometry x="574" y="360" width="100" height="40" as="geometry" />
        </mxCell>
        <mxCell id="VaUhl3B39Ccq0xWstgRe-128" value="Codigo Pedido" style="ellipse;whiteSpace=wrap;html=1;align=center;fontStyle=4;" parent="1" vertex="1">
          <mxGeometry x="574" y="210" width="100" height="40" as="geometry" />
        </mxCell>
        <mxCell id="VaUhl3B39Ccq0xWstgRe-129" value="Codigo Libro" style="ellipse;whiteSpace=wrap;html=1;align=center;fontStyle=4;" parent="1" vertex="1">
          <mxGeometry x="230" y="587" width="100" height="40" as="geometry" />
        </mxCell>
        <mxCell id="VaUhl3B39Ccq0xWstgRe-132" value="Codigo Libro" style="ellipse;whiteSpace=wrap;html=1;align=center;fontStyle=4;" parent="1" vertex="1">
          <mxGeometry x="910" y="660" width="100" height="40" as="geometry" />
        </mxCell>
        <mxCell id="VaUhl3B39Ccq0xWstgRe-134" value="Codigo Libro" style="ellipse;whiteSpace=wrap;html=1;align=center;fontStyle=4;" parent="1" vertex="1">
          <mxGeometry x="574" y="260" width="100" height="40" as="geometry" />
        </mxCell>
      </root>
    </mxGraphModel>
  </diagram>
</mxfile>
